<svg width="24" height="18" viewBox="0 0 24 18" fill="none" xmlns="http://www.w3.org/2000/svg">
<path d="M20.5672 4.3505C21.8438 5.52409 22.9631 6.97051 23.8746 8.62438L24 8.85237L23.8746 9.07849C22.5868 11.4126 20.8873 13.3337 18.9182 14.6586C17.2636 15.7706 15.4199 16.4657 13.4621 16.6377L14.7218 14.4587C15.7044 14.1933 16.6384 13.756 17.5088 13.1692C19.0399 12.1395 20.3707 10.6557 21.4001 8.85237C20.8424 7.87687 20.1966 6.99481 19.4797 6.22674L20.5672 4.3505ZM17.4751 0L20.8143 1.92483L11.5192 18L8.18188 16.0752L8.31104 15.8509C7.538 15.5351 6.79305 15.1352 6.08366 14.6586C4.11084 13.3337 2.41317 11.4126 1.12541 9.08036L1 8.85237L1.12541 8.62438C2.41317 6.29215 4.11084 4.37105 6.08179 3.0461C8.00407 1.75291 10.1865 1.02409 12.5 1.02409C13.8757 1.02409 15.2028 1.28198 16.4569 1.76038L17.4751 0ZM9.30306 14.1335L10.2389 12.5133C9.12712 11.8069 8.38778 10.566 8.38778 9.15137C8.38778 6.95183 10.1734 5.16902 12.3765 5.16902C13.0428 5.16902 13.6717 5.3316 14.2239 5.62126L15.4611 3.48339C14.5177 3.13767 13.5238 2.95079 12.4981 2.95079C10.6994 2.95079 8.99609 3.52263 7.48934 4.53551C5.95825 5.5652 4.62744 7.049 3.59611 8.85424C4.62557 10.6595 5.95825 12.1433 7.48934 13.1711C8.06771 13.5579 8.67415 13.8812 9.30306 14.1335ZM12.9661 7.80025L14.2257 5.62126C13.8851 5.44373 13.5201 5.31478 13.142 5.2419C12.8706 5.64929 12.7096 6.14265 12.7096 6.67525C12.7096 7.0789 12.8032 7.462 12.9661 7.80025Z" fill="black"/>
<path d="M18.6973 2.19348C20.7539 3.63213 22.5254 5.71807 23.8691 8.25245L24 8.5L23.8691 8.74552C22.5254 11.2799 20.752 13.3658 18.6973 14.8045C16.6914 16.2086 14.4141 17 12 17C9.58594 17 7.30859 16.2086 5.30469 14.8065C3.24609 13.3658 1.47461 11.2799 0.130859 8.74552L0 8.5L0.130859 8.25245C1.47461 5.71807 3.24609 3.63213 5.30273 2.19348C7.30859 0.791358 9.58594 0 12 0C14.4141 0 16.6895 0.791358 18.6973 2.19348ZM11.873 4.49857L12.6699 4.5777C12.3867 5.02005 12.2188 5.55574 12.2188 6.13404C12.2188 7.65183 13.3633 8.88148 14.7773 8.88148C15.2305 8.88148 15.6562 8.75567 16.0254 8.53247C16.0312 8.62783 16.0352 8.7232 16.0352 8.8206C16.0352 11.2089 14.1719 13.1447 11.873 13.1447C9.57422 13.1447 7.71094 11.2089 7.71094 8.8206C7.71094 6.43435 9.57422 4.49857 11.873 4.49857ZM21.2891 8.5C20.2148 6.53987 18.8262 4.92874 17.2285 3.81069C15.6562 2.71091 13.8789 2.09 12 2.09C10.123 2.09 8.3457 2.71091 6.77344 3.81069C5.17578 4.92874 3.78711 6.53987 2.71094 8.5C3.78516 10.4601 5.17578 12.0713 6.77344 13.1873C8.3457 14.2871 10.123 14.908 12 14.908C13.8789 14.908 15.6543 14.2871 17.2285 13.1873C18.8262 12.0713 20.2148 10.4601 21.2891 8.5Z" fill="white"/>
</svg>
